PathFileType	4	(X/Y/Z)	60_1_7_p0_0-279_filt_butterworth.trc
DataRate	CameraRate	NumFrames	NumMarkers	Units	OrigDataRate	OrigDataStartFrame	OrigNumFrames
49.0	49.0	6	27	m	49.0	244	279
Frame#	Time	RHip			RKnee			RAnkle			RBigToe			RSmallToe			RHeel			LHip			LKnee			LAnkle			LBigToe			LSmallToe			LHeel			Neck			Head			Nose			RShoulder			RElbow			RWrist			RThumb			RIndex			RPinky			LShoulder			LElbow			LWrist			LThumb			LIndex			LPinky			
		X1	Y1	Z1	X2	Y2	Z2	X3	Y3	Z3	X4	Y4	Z4	X5	Y5	Z5	X6	Y6	Z6	X7	Y7	Z7	X8	Y8	Z8	X9	Y9	Z9	X10	Y10	Z10	X11	Y11	Z11	X12	Y12	Z12	X13	Y13	Z13	X14	Y14	Z14	X15	Y15	Z15	X16	Y16	Z16	X17	Y17	Z17	X18	Y18	Z18	X19	Y19	Z19	X20	Y20	Z20	X21	Y21	Z21	X22	Y22	Z22	X23	Y23	Z23	X24	Y24	Z24	X25	Y25	Z25	X26	Y26	Z26	X27	Y27	Z27	
244	4.979591836734694	0.3383940439913172	0.4036628266746806	-0.17235937244833874	0.32934685823161314	0.6319015837876873	0.2353892111644508	0.32722459307376106	0.8219484735979958	0.6063499263703948	0.28377469470638034	0.6393512114508904	0.676110153481428	0.34753272274455443	0.6594807124242129	0.6669016655181285	0.29388716736913256	0.9220773072078748	0.6537246738651993	0.11573599323679777	0.43548583985364064	-0.18992600205171198	0.10949744585880924	0.6481640083746336	0.23021293443916166	0.12060178334149152	0.7954838229568537	0.5997571607864736	0.12560432904508106	0.6339749486493099	0.663879746181579	0.07072142700502511	0.6781275758184606	0.6606336377604767	0.14396078307401253	0.874171216819538	0.6407891759701423	0.2544664787153525	0.24218987723628083	-0.7062486483453674	0.2506135159776547	0.1425504956925894	-0.9230333930791743	0.24916550478097926	0.09415753796538971	-0.7697851982376491	0.41944737197027404	0.30001228971094207	-0.6394792904048535	0.45914542591287677	0.3528389436160266	-0.3735554269616005	0.45873988156533846	0.38537715005978995	-0.12938053801546745	0.3967241126759761	0.46025673615364165	0.007195408015772982	0.422521426375803	0.45522039090481303	0.03162916759898678	0.4691753706130486	0.4629166190358548	0.01912530491290949	0.07376526632577002	0.28511600519032965	-0.6491764339537631	0.019605619511298217	0.3825909103987275	-0.40280062429669794	-0.0021523780810507416	0.4483864775612483	-0.17111458903806365	0.03549600703514965	0.4426802287774848	-0.048580556457999406	0.0006605931767945035	0.5238213209373213	-0.020114249681071124	-0.007038085284494764	0.5100988701427067	-0.03927491257997747
245	5.0	0.34109122833089006	0.40758594965415873	-0.17266982415786575	0.33099418035005856	0.6331935045427686	0.23643673234603096	0.3270759116276921	0.8213543878506198	0.6063019460513355	0.2837102660719847	0.6389572543331943	0.6758432329832882	0.3477253353600022	0.6594795261535251	0.666747417502871	0.2935530692290399	0.9224264663119541	0.6550680419944485	0.11577911635198795	0.4356788091796505	-0.18976943434749166	0.10975709586772667	0.6485809732736327	0.2314457673794972	0.12251904392545222	0.7964386970691292	0.5996381491893299	0.12603722060415934	0.6348390193157589	0.663771674822774	0.07081042305305653	0.6782489474946299	0.660550272621842	0.1483622030927377	0.8743603595998858	0.640022802707354	0.25340371618200347	0.2456249378568205	-0.7070073676326978	0.25063275186845685	0.14266132634933754	-0.9229387307421445	0.24898941399190036	0.094866194900375	-0.7699980562782838	0.4196298156113431	0.3072540058437731	-0.640807245124671	0.4594244326941585	0.35404788700845613	-0.371437896886416	0.4582418763816797	0.3775538203409209	-0.12727398307054563	0.3938843523561681	0.4535376426184249	0.011400463746589292	0.41766985966106035	0.4517859715232393	0.032054388073660255	0.4690942264951899	0.4650165642045378	0.02135733684985873	0.07347777041204764	0.28633636522219075	-0.6494159826225282	0.01764358110120995	0.38250703336103187	-0.4030011527355404	-0.0029853976846031917	0.44444958332061657	-0.16534657761776297	0.037076588094183655	0.44074955794382603	-0.045935022012332814	0.0012201500697412275	0.5187549952778789	-0.018275049774029502	-0.007533801608299433	0.5086640534213568	-0.034646307848514434
246	5.020408163265306	0.34435451910424913	0.4093256613973089	-0.17307835440307817	0.3330313494197704	0.6339242738293382	0.23647631640445807	0.3269255128023257	0.8209516663228454	0.6056740325078079	0.28393650739644455	0.63972481129814	0.6749951940129619	0.34792269816225707	0.659674098342323	0.666626821484023	0.29299721299029746	0.9228442967363181	0.6569619172906405	0.11590127833840949	0.43569126748541775	-0.1895977695060804	0.11073054312814275	0.6491805419394476	0.23320938953807452	0.12396258648960187	0.7973788178203476	0.5995646151924415	0.12786503551036188	0.6359001038016401	0.6649122310171712	0.07087224007623713	0.6782789472706208	0.6603783404873611	0.15121141486074108	0.8757382889242965	0.6402101019506743	0.25186454263969194	0.2506078491967862	-0.7081733357207292	0.25065082017936235	0.14278070895542927	-0.923140772705116	0.2491317838213235	0.09453527999988803	-0.769947601557418	0.41968007994092393	0.31379574608225685	-0.6419613331744249	0.45952098199546487	0.3553772636987928	-0.37014092358299666	0.4562224404581231	0.36967039011799163	-0.12682401181697003	0.3910549209128279	0.44488025409165055	0.01261458079228456	0.4117900134698036	0.4451180223736769	0.03218529894899191	0.466690209310265	0.456289095745424	0.022482906552716196	0.07412767869927658	0.2888876318320612	-0.6499374696278106	0.017107254067823482	0.38217898520593097	-0.4030095725312362	-0.004233784059141581	0.4440703940019163	-0.1579493208065823	0.03939478945271244	0.4438558831684047	-0.040791459365931426	0.001842258654071983	0.51193402884185	-0.015558708027054715	-0.009166279544004794	0.5064655513315496	-0.028699664003580077
247	5.040816326530612	0.3468795137982093	0.4099839938383769	-0.1735480038039444	0.334376839471353	0.6343227718879813	0.23623097857917555	0.3268769914732737	0.8209015141738504	0.6042943310323566	0.2849600714490159	0.6434683488399149	0.675255478964568	0.348007742080253	0.65987208472501	0.6665614403198993	0.29254664997784036	0.9230616256951194	0.6581918698417665	0.11601220110729706	0.43570043250733426	-0.19026388356828242	0.11210986258515751	0.6499740442679058	0.234133875099699	0.12434256902083309	0.7977849129412842	0.5996927603639284	0.1307386069813356	0.6355504634751469	0.6686696272999275	0.0707536603450792	0.6784908072152291	0.6603602889801798	0.1506900843374199	0.8811815310343829	0.6421421059735891	0.25082307448855984	0.25401128808707285	-0.7090199141964109	0.25065044635357553	0.14279803712741942	-0.9240046177423397	0.2492284900182948	0.0944373409686758	-0.7699612670406779	0.41971189410569154	0.31733994869430715	-0.6428706684659414	0.4595860808006982	0.3563512374932853	-0.3687708806000248	0.45242320274149367	0.3596551877967103	-0.1267422572365867	0.38558346254228176	0.4380198709948158	0.012431174078976568	0.40418962896689087	0.4358098189878844	0.03238166268558679	0.4607220379510378	0.4310525880564726	0.023083679020555817	0.075746442588076	0.29449912481691765	-0.6511087129786004	0.017354438579938444	0.38150270204241205	-0.4028996583208979	-0.00488070287865871	0.44095584107958274	-0.15168917723220468	0.041260810091863644	0.44664576004393913	-0.03535638062332681	0.0037761968020540307	0.4990848734956377	-0.012755739455276575	-0.012638356361295542	0.49810142591662965	-0.023325830952377873
248	5.061224489795919	0.34753361031203134	0.41033555534010874	-0.17380437473945498	0.335087737184221	0.6360984844202647	0.2367263666210709	0.32688910901222623	0.8209293664274626	0.6030754691617408	0.28652768600405615	0.6490992631357273	0.6770497997445974	0.34796460396174694	0.6597600604973938	0.6664027976979924	0.29268163127431396	0.923136231076508	0.6582317028697371	0.11588052318116124	0.43594604775479945	-0.1924089214844925	0.11318944081703991	0.6504882276193187	0.23337384392732125	0.12416860283705464	0.7978266399040252	0.5999263686763643	0.1329942512735491	0.6320444902987686	0.6735793616162691	0.07059888525548452	0.6790501737233202	0.6605385092599967	0.14842366371050242	0.8892139426590315	0.6444702338030722	0.2505780987225076	0.25491403022431686	-0.7092878741242808	0.2505862091804086	0.14255624047021417	-0.9251970687633244	0.2492552722621763	0.09473244852249796	-0.7700507959905508	0.41979322512657324	0.31785472276449317	-0.643958487276093	0.46003805324414765	0.3567349432899768	-0.36800187245379745	0.44744814190710896	0.3486170211478955	-0.1262562323323107	0.3758966369956231	0.42544178146392214	0.012634226442499775	0.39405732354611844	0.420372028865061	0.033061446989210215	0.4527760548092451	0.3985846197894721	0.023817640202925552	0.07843602781061278	0.30206642706053144	-0.65272996953182	0.01749826718795889	0.38120763542536007	-0.40292424180098485	-0.004674653226730979	0.42570678647898474	-0.14883489023730342	0.04185189276102261	0.44295286850210924	-0.033338493849621204	0.00835148529867437	0.47376430336272884	-0.011066731567407326	-0.01688576685830344	0.47981582646041865	-0.021371283785859212
249	5.081632653061225	0.3471128333176235	0.41083457701483095	-0.17340703229321064	0.33619495652686526	0.6408912253618343	0.2383958713627276	0.3268184681831585	0.8210365212802728	0.6027204570389633	0.28764362545717126	0.6530484400226012	0.6788234571144843	0.34789244784129186	0.6593402543310822	0.6662027737984582	0.29371727241749085	0.9233587234417316	0.6576508548689792	0.11545655212815374	0.43632867364768335	-0.1947222999547115	0.11376722741515584	0.6503301872700351	0.23169061539009816	0.1240081262551361	0.7977415796182526	0.6000937807408291	0.13336780620133293	0.6262683238211129	0.6757719853160867	0.07064757151940389	0.6795292289290135	0.6607106457224947	0.1466916435246749	0.8946308791042786	0.6456928010503864	0.25062717610669755	0.25503077271925345	-0.7093158756638611	0.25050089724567404	0.14224481392517885	-0.9259573231758044	0.24926099084562914	0.09511028941146288	-0.770153217176752	0.4198772665622822	0.3173041958472782	-0.6452996674690283	0.46131665358424595	0.3565144786248083	-0.3690807097870414	0.4421829023600599	0.3379296603217552	-0.12589080259074764	0.3638511771828543	0.3994866212158986	0.013270571523330162	0.3826282067751431	0.39380138588639724	0.03365675572375074	0.4460622137615262	0.375122720871077	0.0244089521524787	0.08141171928387445	0.309007359731433	-0.654254699576361	0.017362526789369268	0.38273460878727167	-0.4032773780527388	-0.003629086673066095	0.3970098707768095	-0.14903001806504007	0.0417038712332838	0.4341597476127852	-0.03481351426636289	0.015375382956975646	0.440221407603431	-0.01099227512958943	-0.018905881982983014	0.4562008883026535	-0.022319811898509165
